<svg width="14" height="25" viewBox="0 0 14 25" fill="none" xmlns="http://www.w3.org/2000/svg">
<path d="M0.545175 24.0458C0.545175 24.5723 0.972076 25 1.49939 25C2.02646 25 2.45361 24.5723 2.45361 24.0458C2.45361 23.5179 2.02643 23.0916 1.49939 23.0916C0.972047 23.0916 0.545175 23.5179 0.545175 24.0458Z" fill="white"/>
<path d="M0.545175 21.1602C0.545175 21.6858 0.972076 22.1141 1.49939 22.1141C2.02646 22.1141 2.45361 21.6858 2.45361 21.1602C2.45361 20.6323 2.02643 20.2051 1.49939 20.2051C0.972047 20.2051 0.545175 20.6325 0.545175 21.1602Z" fill="white"/>
<path d="M3.43103 21.1602C3.43103 21.6858 3.85822 22.1141 4.3864 22.1141C4.91319 22.1141 5.34033 21.6858 5.34033 21.1602C5.34033 20.6323 4.91315 20.2051 4.3864 20.2051C3.85822 20.2051 3.43103 20.6325 3.43103 21.1602Z" fill="white"/>
<path d="M3.43103 18.2721C3.43103 18.7992 3.85822 19.228 4.3864 19.228C4.91319 19.228 5.34033 18.7995 5.34033 18.2721C5.34033 17.7459 4.91315 17.3179 4.3864 17.3179C3.85822 17.3179 3.43103 17.7459 3.43103 18.2721Z" fill="white"/>
<path d="M6.31861 18.2721C6.31861 18.7992 6.74579 19.228 7.27312 19.228C7.7999 19.228 8.22705 18.7995 8.22705 18.2721C8.22705 17.7459 7.79987 17.3179 7.27312 17.3179C6.74577 17.3179 6.31861 17.7459 6.31861 18.2721Z" fill="white"/>
<path d="M6.31861 15.3858C6.31861 15.9137 6.74579 16.3406 7.27312 16.3406C7.7999 16.3406 8.22705 15.9137 8.22705 15.3858C8.22705 14.8599 7.79987 14.4319 7.27312 14.4319C6.74577 14.4319 6.31861 14.8599 6.31861 15.3858Z" fill="white"/>
<path d="M9.20496 15.3858C9.20496 15.9137 9.63214 16.3406 10.1589 16.3406C10.6868 16.3406 11.1143 15.9137 11.1143 15.3858C11.1143 14.8599 10.6868 14.4319 10.1589 14.4319C9.63211 14.4319 9.20496 14.8599 9.20496 15.3858Z" fill="white"/>
<path d="M9.20496 12.4999C9.20496 13.0278 9.63214 13.4544 10.1589 13.4544C10.6868 13.4544 11.1143 13.0278 11.1143 12.4999C11.1143 11.972 10.6868 11.5454 10.1589 11.5454C9.63211 11.5454 9.20496 11.972 9.20496 12.4999Z" fill="white"/>
<path d="M12.0913 12.4999C12.0913 13.0278 12.5187 13.4544 13.0461 13.4544C13.5731 13.4544 14 13.0278 14 12.4999C14 11.972 13.5731 11.5454 13.0461 11.5454C12.5187 11.5454 12.0913 11.972 12.0913 12.4999Z" fill="white"/>
<path d="M6.31861 9.61422C6.31861 10.1402 6.74579 10.5681 7.27312 10.5681C7.7999 10.5681 8.22705 10.1401 8.22705 9.61422C8.22705 9.08631 7.79987 8.65942 7.27312 8.65942C6.74577 8.65942 6.31861 9.08633 6.31861 9.61422Z" fill="white"/>
<path d="M9.20496 9.61422C9.20496 10.1402 9.63214 10.5681 10.1589 10.5681C10.6868 10.5681 11.1143 10.1401 11.1143 9.61422C11.1143 9.08631 10.6868 8.65942 10.1589 8.65942C9.63211 8.65942 9.20496 9.08633 9.20496 9.61422Z" fill="white"/>
<path d="M3.43103 6.72791C3.43103 7.25414 3.85822 7.68241 4.3864 7.68241C4.91319 7.68241 5.34033 7.25384 5.34033 6.72791C5.34033 6.20084 4.91315 5.77197 4.3864 5.77197C3.85822 5.77197 3.43103 6.20082 3.43103 6.72791Z" fill="white"/>
<path d="M6.31861 6.72791C6.31861 7.25414 6.74579 7.68241 7.27312 7.68241C7.7999 7.68241 8.22705 7.25384 8.22705 6.72791C8.22705 6.20084 7.79987 5.77197 7.27312 5.77197C6.74577 5.77197 6.31861 6.20082 6.31861 6.72791Z" fill="white"/>
<path d="M0.545175 3.83992C0.545175 4.36782 0.972076 4.795 1.49939 4.795C2.02646 4.795 2.45361 4.36782 2.45361 3.83992C2.45361 3.31425 2.02643 2.88599 1.49939 2.88599C0.972047 2.88571 0.545175 3.314 0.545175 3.83992Z" fill="white"/>
<path d="M3.43103 3.83992C3.43103 4.36782 3.85822 4.795 4.3864 4.795C4.91319 4.795 5.34033 4.36782 5.34033 3.83992C5.34033 3.31425 4.91315 2.88599 4.3864 2.88599C3.85822 2.88571 3.43103 3.314 3.43103 3.83992Z" fill="white"/>
<path d="M0.545175 0.95422C0.545175 1.48212 0.972076 1.90815 1.49939 1.90815C2.02646 1.90815 2.45361 1.48181 2.45361 0.95422C2.45361 0.426038 2.02643 0 1.49939 0C0.972047 0 0.545175 0.426345 0.545175 0.95422Z" fill="white"/>
</svg>
